HIERARCHY
ROOT Hips
{
    OFFSET 0.000000 0.000000 0.000000
    CHANNELS 6 Xposition Yposition Zposition Zrotation Xrotation Yrotation
    JOINT Spine
    {
        OFFSET -0.000000 14.517291 0.000000
        CHANNELS 3 Zrotation Xrotation Yrotation
        JOINT Spine1
        {
            OFFSET -0.000000 37.558300 0.000000
            CHANNELS 3 Zrotation Xrotation Yrotation
            JOINT Neck
            {
                OFFSET -0.000000 37.404057 3.400369
                CHANNELS 3 Zrotation Xrotation Yrotation
                JOINT Head
                {
                    OFFSET -0.000000 24.785618 -3.540803
                    CHANNELS 3 Zrotation Xrotation Yrotation
                    End Site
                    {
                        OFFSET -0.000000 35.408028 0.000000
                    }
                }
            }
            JOINT LeftShoulder
            {
                OFFSET 6.992933 33.973492 -0.192664
                CHANNELS 3 Zrotation Xrotation Yrotation
                JOINT LeftArm
                {
                    OFFSET 21.527611 0.000000 0.000000
                    CHANNELS 3 Zrotation Xrotation Yrotation
                    JOINT LeftForeArm
                    {
                        OFFSET 56.353916 0.000000 0.000000
                        CHANNELS 3 Zrotation Xrotation Yrotation
                        JOINT LeftHand
                        {
                            OFFSET 47.774071 0.000000 0.000000
                            CHANNELS 3 Zrotation Xrotation Yrotation
                            End Site
                            {
                                OFFSET 26.556021 0.000000 0.000000
                            }
                        }
                    }
                }
            }
            JOINT RightShoulder
            {
                OFFSET -7.065357 33.973492 -0.192664
                CHANNELS 3 Zrotation Xrotation Yrotation
                JOINT RightArm
                {
                    OFFSET -21.527611 0.000000 0.000000
                    CHANNELS 3 Zrotation Xrotation Yrotation
                    JOINT RightForeArm
                    {
                        OFFSET -56.353916 0.000000 0.000000
                        CHANNELS 3 Zrotation Xrotation Yrotation
                        JOINT RightHand
                        {
                            OFFSET -47.774071 0.000000 0.000000
                            CHANNELS 3 Zrotation Xrotation Yrotation
                            End Site
                            {
                                OFFSET -26.556021 0.000000 0.000000
                            }
                        }
                    }
                }
            }
        }
    }
    JOINT LeftUpLeg
    {
        OFFSET 17.704014 0.000000 0.000000
        CHANNELS 3 Zrotation Xrotation Yrotation
        JOINT LeftLeg
        {
            OFFSET -0.000000 -81.181816 0.000000
            CHANNELS 3 Zrotation Xrotation Yrotation
            JOINT LeftFoot
            {
                OFFSET -0.000000 -62.821102 0.000000
                CHANNELS 3 Zrotation Xrotation Yrotation
                JOINT LeftToeBase
                {
                    OFFSET -0.000000 -11.507608 26.556021
                    CHANNELS 3 Zrotation Xrotation Yrotation
                    End Site
                    {
                        OFFSET -0.000000 0.000000 7.081605
                    }
                }
            }
        }
    }
    JOINT RightUpLeg
    {
        OFFSET -17.704014 0.000000 0.000000
        CHANNELS 3 Zrotation Xrotation Yrotation
        JOINT RightLeg
        {
            OFFSET -0.000000 -81.181816 0.000000
            CHANNELS 3 Zrotation Xrotation Yrotation
            JOINT RightFoot
            {
                OFFSET -0.000000 -62.821102 0.000000
                CHANNELS 3 Zrotation Xrotation Yrotation
                JOINT RightToeBase
                {
                    OFFSET -0.000000 -11.507608 26.556021
                    CHANNELS 3 Zrotation Xrotation Yrotation
                    End Site
                    {
                        OFFSET -0.000000 0.000000 7.081605
                    }
                }
            }
        }
    }
}
MOTION
Frames:    4
Frame Time:    0.008333
25.051754    156.203705    -34.887085    1.892312    -0.624161    -44.697575    2.358956    -1.183816    2.076647    -0.382621    1.894578    0.688725    17.576319    -3.886431    15.640003    -10.441311    9.663844    12.456635    10.175125    0.448036    -18.123232    -12.902393    -17.567513    -44.639091    9.614825    -37.670181    -28.259918    -27.498524    -26.156548    -43.345257    -8.866395    1.604802    1.615253    33.171577    -0.763756    71.659210    7.819227    -12.228305    97.433739    14.114633    -17.641710    26.431660    17.011299    -19.800825    4.395854    -11.868876    18.821209    -3.486216    -8.262458    -0.249249    38.103184    0.000000    0.000000    0.000000    -16.244143    0.828657    -6.514270    6.873070    27.827932    -2.709743    5.488124    -21.530870    -16.951916    0.000000    0.000000    0.000000    
25.053701    156.206390    -34.897579    1.899228    -0.622456    -44.683723    2.341199    -1.174926    2.089571    -0.357013    1.883325    0.692690    17.541267    -3.897289    15.623228    -10.406159    9.684696    12.447873    10.150938    0.454081    -18.137352    -12.913619    -17.581118    -44.664146    9.578381    -37.667038    -28.261761    -27.578014    -26.084183    -43.526192    -8.773989    1.760345    1.608465    33.428322    -0.325271    71.998779    7.770584    -12.639302    97.555054    14.180180    -18.014410    26.257772    17.003668    -19.804508    4.387579    -11.863461    18.801462    -3.486003    -8.268088    -0.233561    38.094700    0.000000    0.000000    0.000000    -16.244843    0.797740    -6.515884    6.875538    27.881573    -2.714096    5.488909    -21.525320    -16.973061    0.000000    0.000000    0.000000    
25.057619    156.210678    -34.903728    1.909137    -0.617322    -44.664696    2.336348    -1.173559    2.100280    -0.344396    1.880159    0.696114    17.514057    -3.910975    15.602453    -10.390679    9.699076    12.431297    10.129201    0.452948    -18.138447    -12.938693    -17.583174    -44.704838    9.625942    -37.671707    -28.250978    -27.483126    -26.164219    -43.338303    -8.687806    1.947055    1.582383    33.654732    0.119933    72.389130    7.647265    -13.143078    97.656837    14.257943    -18.386669    26.106380    16.991768    -19.816889    4.373327    -11.858230    18.781902    -3.463023    -8.267045    -0.203046    38.075748    0.000000    0.000000    0.000000    -16.245470    0.793999    -6.514242    6.884973    27.874611    -2.755684    5.501799    -21.524900    -16.958944    0.000000    0.000000    0.000000    
25.056690    156.211166    -34.917099    1.923956    -0.603839    -44.651821    2.322372    -1.177279    2.117399    -0.323993    1.872680    0.701494    17.478386    -3.924112    15.584285    -10.352546    9.705592    12.419684    10.121757    0.461667    -18.143652    -12.942073    -17.570076    -44.731678    9.628345    -37.700115    -28.244610    -27.591160    -26.106844    -43.525494    -8.600942    2.124373    1.562971    33.871105    0.568645    72.747993    7.486143    -13.662502    97.767448    14.308785    -18.743538    25.926851    16.990227    -19.837217    4.383056    -11.846625    18.769911    -3.481353    -8.279914    -0.193199    38.079845    0.000000    0.000000    0.000000    -16.243776    0.775348    -6.529489    6.886064    27.878212    -2.728815    5.498770    -21.532705    -16.984369    0.000000    0.000000    0.000000    
